<?xml version="1.0" encoding="utf-8"?>
<!-- Generator: Adobe Illustrator 23.0.1, SVG Export Plug-In . SVG Version: 6.00 Build 0)  -->
<svg version="1.1" xmlns="http://www.w3.org/2000/svg" xmlns:xlink="http://www.w3.org/1999/xlink" x="0px" y="0px"
	 viewBox="0 0 63.62 54.88" style="enable-background:new 0 0 63.62 54.88;" xml:space="preserve">
<style type="text/css">
	.st0{display:none;}
	.st1{display:inline;fill:#FFFFFF;}
	.st2{fill:#333333;}
</style>
<g id="Layer_2" class="st0">
	<rect x="-40.88" y="-16.25" class="st1" width="157.88" height="102.62"/>
</g>
<g id="Layer_1">
	<path class="st2" d="M18,6.12c-6.23,0-12.51,3.7-12.51,11.95v19.1c0,8.3,6.28,12.01,12.51,12.01c7.53,0,12.21-4.4,12.21-11.48
		v-4.22c0-0.65-0.54-1.17-1.21-1.17h-5.16c-0.67,0-1.21,0.52-1.21,1.17v4.1c0,2.84-1.49,4.28-4.44,4.28c-2.9,0-4.5-1.44-4.5-4.04
		V17.43c0-2.61,1.6-4.04,4.5-4.04c3.67,0,4.44,2.33,4.44,4.28v4.1c0,0.65,0.54,1.17,1.21,1.17h5.16c0.67,0,1.21-0.52,1.21-1.17
		v-4.22C30.21,10.5,25.53,6.12,18,6.12z"/>
	<path class="st2" d="M54.25,27.03c2.07-1.37,3.12-3.71,3.12-6.99v-3.16c0-6.48-3.65-9.9-10.57-9.9H35.08
		c-0.67,0-1.21,0.52-1.21,1.17v39.02c0,0.65,0.54,1.17,1.21,1.17h12.03c6.99,0,10.69-3.42,10.69-9.9v-4.16
		C57.8,30.88,56.58,28.43,54.25,27.03z M49.3,20.86c0,2.26-0.93,3.22-3.1,3.22h-4.13v-9.96h4.8c1.46,0,2.43,0.45,2.43,2.64V20.86z
		 M42.07,30.82h4.44c2.14,0,3.1,0.99,3.1,3.22v4.57c0,1.83-0.72,2.58-2.49,2.58h-5.04V30.82z"/>
</g>
</svg>
