<?xml version="1.0" encoding="utf-8"?>
<!-- Generator: Adobe Illustrator 21.1.0, SVG Export Plug-In . SVG Version: 6.00 Build 0)  -->
<svg version="1.1" id="Layer_1" xmlns="http://www.w3.org/2000/svg" xmlns:xlink="http://www.w3.org/1999/xlink" x="0px" y="0px"
	 viewBox="0 0 215.1 56" style="enable-background:new 0 0 215.1 56;" xml:space="preserve">
<style type="text/css">
	.st0{display:none;fill:#054572;}
	.st1{display:none;fill:url(#SVGID_1_);}
	.st2{fill:#FF6F61;}
</style>
<rect x="-146.8" y="-104.5" class="st0" width="536.5" height="257.9"/>
<radialGradient id="SVGID_1_" cx="57.1934" cy="1767.611" r="405.4959" gradientTransform="matrix(0.5951 0 0 0.4054 73.4142 -690.5895)" gradientUnits="userSpaceOnUse">
	<stop  offset="0" style="stop-color:#009EC2;stop-opacity:0.5"/>
	<stop  offset="0.7435" style="stop-color:#054572"/>
</radialGradient>
<rect x="-81.1" y="-67.1" class="st1" width="377.1" height="186.2"/>
<g>
	<g>
		<path class="st2" d="M11.9,0C6,0,0,3.7,0,11.8v18.9c0,8.2,6,11.9,11.9,11.9c7.2,0,11.7-4.4,11.7-11.4V27c0-0.6-0.5-1.2-1.2-1.2
			h-4.9c-0.6,0-1.2,0.5-1.2,1.2v4.2c0,2.8-1.4,4.2-4.2,4.2s-4.3-1.4-4.3-4V11.2c0-2.6,1.5-4,4.3-4c3.5,0,4.2,2.3,4.2,4.2v4.1
			c0,0.6,0.5,1.2,1.2,1.2h4.9c0.6,0,1.2-0.5,1.2-1.2v-4.2C23.6,4.3,19.1,0,11.9,0z"/>
		<path class="st2" d="M44.4,36.3c-0.3,0-0.4,0-0.4,0s0-0.1,0-0.3V21.5c0-6.2-3.2-9.7-9.1-9.7c-5.5,0-9,3.5-9,8.8v1.6
			c0,0.6,0.5,1.2,1.2,1.2h4.6c0.6,0,1.2-0.5,1.2-1.2v-1.4c0-2.1,0.3-2.4,2.1-2.4c1.5,0,2.1,0.6,2.1,2.2v2.8c-5.9,1-12.2,3.2-12.2,10
			V34c0,5,3.1,8.2,7.9,8.2c2.2,0,4.3-0.8,6-2.2c0.7,1.4,2.2,2.2,4.2,2.2h1.5c0.6,0,1.2-0.5,1.2-1.2v-3.7
			C45.5,36.8,45,36.3,44.4,36.3z M37,33c0,1.8-1.8,3-3.4,3c-1.6,0-1.9-1.3-1.9-2v-0.8c0-0.9,0-3.1,5.3-4C37,29.2,37,33,37,33z"/>
		<path class="st2" d="M60.7,12.1c-3-0.5-5.2,0.1-6.8,2l-0.1-0.7c-0.1-0.6-0.6-1.1-1.2-1.1h-4.1c-0.6,0-1.2,0.5-1.2,1.2v27.1
			c0,0.6,0.5,1.2,1.2,1.2h4.9c0.6,0,1.2-0.5,1.2-1.2v-19c0-1,0.3-1.4,0.6-1.6c0.6-0.5,1.9-1,5.1-0.6c0.3,0,0.7-0.1,0.9-0.3
			c0.2-0.2,0.4-0.5,0.4-0.9v-4.9C61.6,12.7,61.2,12.2,60.7,12.1z"/>
		<path class="st2" d="M75,11.8c-1.9,0-3.7,0.7-5.1,1.8V2c0-0.6-0.5-1.2-1.2-1.2h-4.8c-0.6,0-1.2,0.5-1.2,1.2v38.6
			c0,0.6,0.5,1.2,1.2,1.2h3.2c0.6,0,1-0.4,1.1-0.9l0.2-0.9c1.4,1.4,3.4,2.2,5.8,2.2c4.9,0,8.1-3.7,8.1-9.1V20.9
			C82.3,15.4,79.5,11.8,75,11.8z M75.2,22v10.4c0,3.2-1.3,3.6-2.6,3.6c-1.3,0-2.7-0.9-2.7-3.3v-11c0-2.1,1-3.3,2.8-3.3
			C74,18.4,75.2,18.8,75.2,22z"/>
		<path class="st2" d="M94.3,11.8c-5.8,0-9.7,4.1-9.7,10.3v10c0,6.2,3.8,10.2,9.7,10.2c5.8,0,9.6-4,9.6-10.2v-10
			C104,15.9,100.2,11.8,94.3,11.8z M91.8,21.2c0-1.1,0.3-2.8,2.6-2.8c2.2,0,2.6,1.8,2.6,2.8v11.7c0,1.9-0.9,2.8-2.6,2.8
			s-2.6-1-2.6-2.8V21.2z"/>
		<path class="st2" d="M118.7,11.9c-2.2,0-4.1,0.9-5.5,2.7l-0.1-1.3c0-0.6-0.5-1.1-1.2-1.1h-4.1c-0.6,0-1.2,0.5-1.2,1.2v27.1
			c0,0.6,0.5,1.2,1.2,1.2h4.9c0.6,0,1.2-0.5,1.2-1.2V22.9c0-1.4,1.2-4.7,3.2-4.7c1.9,0,2.1,1.8,2.1,2.6v19.8c0,0.6,0.5,1.2,1.2,1.2
			h4.9c0.6,0,1.2-0.5,1.2-1.2v-20C126.5,15.2,123.5,11.9,118.7,11.9z"/>
	</g>
	<g>
		<path class="st2" d="M149.5,20.7c2-1.4,3-3.7,3-6.9v-3.1c0-6.4-3.5-9.8-10.1-9.8h-11.2c-0.6,0-1.2,0.5-1.2,1.2v38.6
			c0,0.6,0.5,1.2,1.2,1.2h11.5c6.7,0,10.2-3.4,10.2-9.8V28C152.9,24.5,151.7,22.1,149.5,20.7z M144.7,14.6c0,2.2-0.9,3.2-3,3.2h-3.9
			V7.9h4.6c1.4,0,2.3,0.4,2.3,2.6L144.7,14.6L144.7,14.6z M137.8,24.4h4.2c2,0,3,1,3,3.2v4.5c0,1.8-0.7,2.6-2.4,2.6h-4.8V24.4z"/>
		<path class="st2" d="M168.7,12.1c-3-0.5-5.2,0.1-6.8,2l-0.1-0.8c-0.1-0.6-0.6-1.1-1.2-1.1h-4.1c-0.6,0-1.2,0.5-1.2,1.2v27.1
			c0,0.6,0.5,1.2,1.2,1.2h4.9c0.6,0,1.2-0.5,1.2-1.2v-19c0-1,0.3-1.4,0.6-1.6c0.6-0.5,1.9-1,5.1-0.6c0.3,0,0.7-0.1,0.9-0.3
			s0.4-0.5,0.4-0.9v-4.9C169.7,12.7,169.3,12.2,168.7,12.1z"/>
		<path class="st2" d="M172.2,10.3h4.5c0.6,0,1.2-0.5,1.2-1.2V3.9c0-0.6-0.5-1.2-1.2-1.2h-4.5c-0.6,0-1.2,0.5-1.2,1.2v5.2
			C171,9.8,171.5,10.3,172.2,10.3z"/>
		<path class="st2" d="M176.9,12.3H172c-0.6,0-1.2,0.5-1.2,1.2v27.1c0,0.6,0.5,1.2,1.2,1.2h4.9c0.6,0,1.2-0.5,1.2-1.2V13.5
			C178,12.8,177.5,12.3,176.9,12.3z"/>
		<path class="st2" d="M190.4,11.8c-5.8,0-9.6,4-9.6,10.3v10c0,6.2,3.8,10.2,9.6,10.2s9.2-3.8,9.2-10v-1.2c0-0.6-0.5-1.2-1.2-1.2
			h-4.3c-0.6,0-1.2,0.5-1.2,1.2V33c0,2-0.9,3-2.6,3c-1.7,0-2.6-1-2.6-3v-4.4h10.6c0.6,0,1.2-0.5,1.2-1.2v-5.2
			C199.7,15.8,196.1,11.8,190.4,11.8z M187.9,23.4v-2.1c0-1.4,0.5-3,2.6-3s2.6,1.6,2.6,3v2.1H187.9z"/>
		<path class="st2" d="M213.8,0.8h-1.9c-5.3,0-8.4,3.7-8.4,10.1v1.4h-2c-0.6,0-1.2,0.5-1.2,1.2v4.1c0,0.6,0.5,1.2,1.2,1.2h2v21.9
			c0,0.6,0.5,1.2,1.2,1.2h4.9c0.6,0,1.2-0.5,1.2-1.2v-22h2.6c0.6,0,1.2-0.5,1.2-1.2v-4.1c0-0.6-0.5-1.2-1.2-1.2h-2.8V9.8
			c0-2.5,1-2.7,2-2.7h1.3c0.6,0,1.2-0.5,1.2-1.2V1.8C215,1.3,214.5,0.8,213.8,0.8z"/>
	</g>
	<g>
		<path class="st2" d="M48,50c0.8,0,1.5,0.3,2,0.8c0.1,0.1,0.1,0.2,0,0.2l-0.5,0.5c-0.1,0.1-0.1,0.1-0.2,0C48.9,51.2,48.5,51,48,51
			c-1.1,0-1.9,0.9-1.9,2c0,1,0.8,1.9,1.9,1.9c0.5,0,0.9-0.2,1.3-0.5c0.1-0.1,0.2-0.1,0.2,0l0.5,0.5c0.1,0.1,0,0.2,0,0.2
			c-0.6,0.6-1.3,0.8-2,0.8c-1.7,0-3-1.3-3-3C45,51.3,46.3,50,48,50z"/>
		<path class="st2" d="M57,50.2c0-0.1,0.1-0.2,0.2-0.2H58c0.1,0,0.2,0.1,0.2,0.2v4.7h2.1c0.1,0,0.2,0.1,0.2,0.2v0.7
			c0,0.1-0.1,0.2-0.2,0.2h-3.1c-0.1,0-0.2-0.1-0.2-0.2V50.2z"/>
		<path class="st2" d="M67.1,50.2c0-0.1,0.1-0.2,0.2-0.2h3.4c0.1,0,0.2,0.1,0.2,0.2v0.7c0,0.1-0.1,0.2-0.2,0.2h-2.5v1.4h2.1
			c0.1,0,0.2,0.1,0.2,0.2v0.7c0,0.1-0.1,0.2-0.2,0.2h-2.1v1.5h2.5c0.1,0,0.2,0.1,0.2,0.2V56c0,0.1-0.1,0.2-0.2,0.2h-3.4
			c-0.1,0-0.2-0.1-0.2-0.2V50.2z"/>
		<path class="st2" d="M77.2,55.7l2.6-5.6c0-0.1,0.1-0.1,0.1-0.1H80c0.1,0,0.1,0,0.1,0.1l2.6,5.6c0.1,0.1,0,0.2-0.1,0.2h-0.7
			c-0.1,0-0.2-0.1-0.2-0.2l-0.4-0.9h-2.5l-0.4,0.9c0,0.1-0.1,0.2-0.2,0.2h-0.7C77.2,55.9,77.1,55.8,77.2,55.7z M80.8,53.9L80,52.1
			l0,0l-0.8,1.8H80.8z"/>
		<path class="st2" d="M89.4,50.2c0-0.1,0.1-0.2,0.2-0.2H92c1,0,1.8,0.8,1.8,1.8c0,0.8-0.5,1.4-1.2,1.7l1.1,2.1
			c0.1,0.1,0,0.2-0.1,0.2h-0.9c-0.1,0-0.1,0-0.1-0.1l-1.1-2.2h-0.9v2.1c0,0.1-0.1,0.2-0.2,0.2h-0.8c-0.1,0-0.2-0.1-0.2-0.2
			C89.4,55.6,89.4,50.2,89.4,50.2z M91.8,52.7c0.4,0,0.8-0.4,0.8-0.9c0-0.4-0.4-0.8-0.8-0.8h-1.4v1.7C90.4,52.7,91.8,52.7,91.8,52.7
			z"/>
		<path class="st2" d="M111.2,50c1.7,0,3,1.4,3,3c0,1.7-1.3,3-3,3s-3-1.3-3-3C108.1,51.3,109.5,50,111.2,50z M111.2,54.9
			c1.1,0,1.9-0.9,1.9-1.9c0-1.1-0.9-1.9-1.9-1.9c-1,0-1.9,0.9-1.9,1.9C109.2,54.1,110.1,54.9,111.2,54.9z"/>
		<path class="st2" d="M121.2,50.1c0-0.1,0.1-0.2,0.2-0.2h0.2l3.5,3.7l0,0v-3.4c0-0.1,0.1-0.2,0.2-0.2h0.8c0.1,0,0.2,0.1,0.2,0.2
			v5.6c0,0.1-0.1,0.2-0.2,0.2h-0.3l-3.5-3.9l0,0v3.6c0,0.1-0.1,0.2-0.2,0.2h-0.8c-0.1,0-0.2-0.1-0.2-0.2L121.2,50.1L121.2,50.1z"/>
		<path class="st2" d="M143.8,50c0.8,0,1.5,0.3,2,0.8c0.1,0.1,0.1,0.2,0,0.2l-0.5,0.5c-0.1,0.1-0.1,0.1-0.2,0
			c-0.4-0.3-0.8-0.5-1.3-0.5c-1.1,0-1.9,0.9-1.9,2c0,1,0.8,1.9,1.9,1.9c0.5,0,0.9-0.2,1.3-0.5c0.1-0.1,0.2-0.1,0.2,0l0.5,0.5
			c0.1,0.1,0,0.2,0,0.2c-0.6,0.6-1.3,0.8-2,0.8c-1.7,0-3-1.3-3-3C140.8,51.3,142.2,50,143.8,50z"/>
		<path class="st2" d="M152.9,50.2c0-0.1,0.1-0.2,0.2-0.2h0.8c0.1,0,0.2,0.1,0.2,0.2v4.7h2.1c0.1,0,0.2,0.1,0.2,0.2v0.7
			c0,0.1-0.1,0.2-0.2,0.2h-3.1c-0.1,0-0.2-0.1-0.2-0.2V50.2z"/>
		<path class="st2" d="M163,50.2c0-0.1,0.1-0.2,0.2-0.2h0.8c0.1,0,0.2,0.1,0.2,0.2v5.6c0,0.1-0.1,0.2-0.2,0.2h-0.8
			c-0.1,0-0.2-0.1-0.2-0.2V50.2z"/>
		<path class="st2" d="M172.1,50.1c0-0.1,0.1-0.1,0.2-0.1h0.1c0.1,0,0.1,0,0.1,0.1l1.8,4l0,0l1.8-4c0-0.1,0.1-0.1,0.1-0.1h0.1
			c0.1,0,0.1,0.1,0.2,0.1l1,5.6c0,0.1,0,0.2-0.2,0.2h-0.8c-0.1,0-0.1-0.1-0.2-0.1l-0.5-3.2l0,0l-1.5,3.3c0,0.1-0.1,0.1-0.1,0.1H174
			c-0.1,0-0.1,0-0.1-0.1l-1.5-3.3l0,0l-0.5,3.2c0,0.1-0.1,0.1-0.2,0.1h-0.8c-0.1,0-0.2-0.1-0.2-0.2L172.1,50.1z"/>
		<path class="st2" d="M183.9,55.7l2.6-5.6c0-0.1,0.1-0.1,0.1-0.1h0.1c0.1,0,0.1,0,0.1,0.1l2.6,5.6c0.1,0.1,0,0.2-0.1,0.2h-0.7
			c-0.1,0-0.2-0.1-0.2-0.2l-0.4-0.9h-2.5l-0.4,0.9c0,0.1-0.1,0.2-0.2,0.2h-0.7C183.9,55.9,183.9,55.8,183.9,55.7z M187.5,53.9
			l-0.8-1.8l0,0l-0.8,1.8H187.5z"/>
		<path class="st2" d="M196.6,51.1h-1.3c-0.1,0-0.2-0.1-0.2-0.2v-0.7c0-0.1,0.1-0.2,0.2-0.2h3.7c0.1,0,0.2,0.1,0.2,0.2v0.7
			c0,0.1-0.1,0.2-0.2,0.2h-1.3v4.7c0,0.1-0.1,0.2-0.2,0.2h-0.7c-0.1,0-0.2-0.1-0.2-0.2V51.1z"/>
		<path class="st2" d="M205.9,50.2c0-0.1,0.1-0.2,0.2-0.2h3.4c0.1,0,0.2,0.1,0.2,0.2v0.7c0,0.1-0.1,0.2-0.2,0.2H207v1.4h2.1
			c0.1,0,0.2,0.1,0.2,0.2v0.7c0,0.1-0.1,0.2-0.2,0.2H207v1.5h2.5c0.1,0,0.2,0.1,0.2,0.2V56c0,0.1-0.1,0.2-0.2,0.2h-3.4
			c-0.1,0-0.2-0.1-0.2-0.2V50.2z"/>
	</g>
</g>
</svg>
