<?xml version="1.0" encoding="utf-8"?>
<!-- Generator: Adobe Illustrator 21.1.0, SVG Export Plug-In . SVG Version: 6.00 Build 0)  -->
<svg version="1.1" id="Layer_1" xmlns="http://www.w3.org/2000/svg" xmlns:xlink="http://www.w3.org/1999/xlink" x="0px" y="0px"
	 viewBox="0 0 52.2 42.2" style="enable-background:new 0 0 52.2 42.2;" xml:space="preserve">
<style type="text/css">
	.st0{display:none;}
	.st1{display:inline;fill:#FFFFFF;}
	.st2{fill:#333333;}
</style>
<g id="Layer_2" class="st0">
	<rect x="-46.4" y="-22.4" class="st1" width="157.9" height="102.6"/>
</g>
<g id="Layer_1_1_">
	<path class="st2" d="M12.5,0C6.3,0,0,3.7,0,12v19.1c0,8.3,6.3,12,12.5,12c7.5,0,12.2-4.4,12.2-11.5v-4.2c0-0.6-0.5-1.2-1.2-1.2
		h-5.2c-0.7,0-1.2,0.5-1.2,1.2v4.1c0,2.8-1.5,4.3-4.4,4.3s-4.5-1.4-4.5-4V11.3c0-2.6,1.6-4,4.5-4c3.7,0,4.4,2.3,4.4,4.3v4.1
		c0,0.6,0.5,1.2,1.2,1.2h5.2c0.7,0,1.2-0.5,1.2-1.2v-4.2C24.7,4.4,20,0,12.5,0z"/>
	<path class="st2" d="M48.7,20.9c2.1-1.4,3.1-3.7,3.1-7v-3.2c0-6.5-3.7-9.9-10.6-9.9H29.5c-0.7,0-1.2,0.5-1.2,1.2v39
		c0,0.6,0.5,1.2,1.2,1.2h12c7,0,10.7-3.4,10.7-9.9v-4.2C52.2,24.8,51,22.3,48.7,20.9z M43.7,14.7c0,2.3-0.9,3.2-3.1,3.2h-4.1v-10
		h4.8c1.5,0,2.4,0.4,2.4,2.6C43.7,10.5,43.7,14.7,43.7,14.7z M36.5,24.7h4.4c2.1,0,3.1,1,3.1,3.2v4.6c0,1.8-0.7,2.6-2.5,2.6h-5V24.7
		z"/>
</g>
</svg>
